<?xml version="1.0" encoding="UTF-8"?><svg id="uuid-08900741-9c85-4ae2-8069-0687d98aee9e" xmlns="http://www.w3.org/2000/svg" width="2571.75" height="680.02" viewBox="0 0 2571.75 680.02"><g id="uuid-33225fa1-1ec6-4385-9346-a5722761ac96"><path d="M1141.27,401.46c6.21-13.42,17.42-23.33,30.66-28.13-2.45-16.28-4.64-31.3-6.64-45.44-.58.24-1.15.48-1.72.73-23.08,10.06-40.68,29.61-48.28,53.6-5.34,20.86-.87,42.25,10.88,58.87,10.88,15.57,27.45,26.3,46.2,29.77.61.12,1.2-.23,1.41-.82.19-.59-.09-1.22-.65-1.5-12.81-2.9-23.85-11.02-30.41-22.42-5.33-9.24-7.32-19.96-5.78-30.36.75-4.85,2.2-9.67,4.33-14.3Z" style="fill:#0b1f41; fill-rule:evenodd;"/><path d="M1177.62,122.07c2.72,0,5.44.33,8.09.97,2.76.67,5.34,1.59,7.72,2.75,3.65-16.39,9.61-32.27,17.77-47.15,25.09-45.73,59.28-26.14,47.56,16.95-7.43,27.3-24.26,52.66-45.33,72.81.05,2,.09,3.99.13,5.95.08,3.77.16,7.67.31,11.47.52,13.24.92,26.59,1.28,39.86,16.35-15.92,30.12-35.19,40.26-56.16,23.26-52.8,20.32-113.47-7.94-163.79-5.27-8.66-10.53-7.75-24.15,4.42-36.26,35.28-48.84,69.32-50.26,112.24,1.51-.21,3.03-.32,4.56-.32" style="fill:#0b1f41; fill-rule:evenodd;"/><path d="M1202.03,598.93c.54,6.24.03,12.38-1.38,18.24-1.48,6.09-3.95,11.87-7.25,17.11-3.32,5.22-7.47,9.92-12.33,13.86-4.73,3.84-10.14,6.97-16.1,9.17-5.95,2.2-12.1,3.35-18.21,3.53-6.27.17-12.48-.68-18.4-2.5-11.98-3.68-22.4-11.21-29.7-21.41-.8-1.12-1.69-2.25-.98-3.58.44-.84,1.33-1.34,2.27-1.27,14.51,2.83,29.56-1.88,39.86-12.66,11.44-11.63,13.27-29.63,4.42-43.32-8.83-13.69-26-19.42-41.29-13.78-23.08,7.26-32.2,30.92-30.92,53.6,2.71,48.28,48.35,71.69,88.64,61.89,27.87-6.76,47.58-29.79,54.21-57.15,1.77-7.2,2.4-14.78,1.8-22.49-4.9.19-9.82.46-14.64.73Z" style="fill:#0b1f41; fill-rule:evenodd;"/><path d="M1185.73,520.03c-.21-3.17-.41-6.34-.62-9.48-.14-2.08-.27-4.17-.41-6.28-41.25,2.1-77.5-16.04-97.94-47.69-9.31-14.42-15.35-31.64-17.06-51.03-6.74-75.73,36.39-104.32,87.63-137.58-.06-.5-.12-1-.18-1.5-2.09-17.01-4.14-34.38-6.16-51.99-68.8,47.78-134.55,106.08-104.18,202.57,18.61,59.04,75.23,104.88,138.92,102.98Z" style="fill:#0b1f41; fill-rule:evenodd;"/><path d="M1235.69,329.71c-5.93-2.81-12.1-4.91-18.4-6.3.07,5.04.13,10.08.17,15.11.1,11.89.1,23.97.11,35.65,0,.74,0,1.49,0,2.23,17.46,8.1,31.1,23.26,37.03,42.23,10.62,33.87-2.66,64.14-32.56,77.54.37,5.51.72,11.03,1.05,16.5,79.52-30.35,92.45-139.5,12.6-182.96Z" style="fill:#0b1f41; fill-rule:evenodd;"/><path d="M1197.4,136.04c5.77,5.02,8.63,11.2,9.18,18.41.82,10.52.68,21.09,1.1,31.63.99,25.21,1.55,50.43,2.15,75.65.61,25.61,1.22,51.23,1.44,76.85.18,21.36.04,42.72.16,64.08.15,26.88,1.49,53.7,3.49,80.5,1.53,20.58,2.64,41.2,3.94,61.8.4,6.28.76,12.56,1.25,18.83.14,1.86-.47,2.51-2.32,2.69-7.05.69-14.14.63-21.19,1.3-1.13.11-1.53-.33-1.58-1.4-.11-2.36-.34-4.71-.44-7.06-1.05-24.03-2.88-48.01-4.34-72.02-.93-15.31-1.87-30.61-2.89-45.91-1.19-17.87-3.8-35.57-6.5-53.25-6.22-40.75-12.13-81.53-17.14-122.45-4.25-34.67-8.21-69.36-11.93-104.09-.54-5.02-.95-10.08.57-15.03,3.97-12.99,18.24-20.69,32.05-17.31,4.99,1.22,9.46,3.43,13,6.78Z" style="fill:#be1f41;"/><path d="M1182.15,590.05c-2.95-2.91-4.32-6.44-3.38-10.53.98-4.28,3.47-7.44,7.77-8.89.86-.29,1.78-.51,2.68-.57,11.38-.66,22.76-1.39,34.15-1.86,5.45-.23,10.02,3.76,11.35,9.31,1.19,4.99-1.43,10.42-6.16,12.84-2.12,1.08-4.43,1.25-6.7,1.3-9.9.23-19.77.93-29.65,1.43-3.72.19-7.2-.34-10.06-3.03Z" style="fill:#be1f41;"/><path d="M0,161.56h129.98c68.41,0,104.63,29.38,104.63,74.85,0,33.2-23.14,58.95-57.95,65.59v3.22c38.63,1.41,69.62,28.97,69.62,71.23,0,49.29-40.04,84.91-105.03,84.91H0V161.56ZM114.69,282.69c21.33,0,36.22-10.06,36.22-28.57s-14.89-28.57-35.01-28.57h-34.61v57.14h33.4ZM119.51,396.57c27.16,0,41.05-10.66,41.05-30.58,0-21.13-15.29-33-39.84-33h-39.44v63.58h38.23Z" style="fill:#0b1f41;"/><path d="M329.4,161.56h111.06l100.8,299.79h-92.15l-17.3-57.54h-92.15l-16.5,57.54h-90.94l97.18-299.79ZM413.7,343.05c-10.86-36.62-20.52-75.65-29.58-114.89-8.25,39.23-16.7,78.27-27.16,114.89h56.74Z" style="fill:#0b1f41;"/><path d="M470.79,161.56h260.36v65.59h-89.53v234.2h-81.29v-234.2h-89.53v-65.59Z" style="fill:#0b1f41;"/><path d="M721.11,355.92h77.26c1.41,27.56,19.72,42.25,51.11,42.25,25.96,0,39.84-10.46,39.84-25.35,0-13.48-11.87-21.93-45.07-28.97l-30.18-6.44c-52.92-11.27-85.31-37.62-85.31-84.51,0-56.94,49.9-95.37,121.12-95.37s117.9,39.03,118.31,97.78h-78.07c-1.41-19.52-13.88-30.99-40.24-30.99s-36.22,9.66-36.22,22.94c0,14.29,11.87,22.53,40.24,28.57l24.55,5.23c66.2,14.08,93.76,46.28,93.76,91.75,0,59.35-45.67,92.15-121.53,92.15s-129.17-33.8-129.57-109.05Z" style="fill:#0b1f41;"/><path d="M1352,161.56h129.98c68.41,0,104.62,29.38,104.62,74.85,0,33.2-23.14,58.95-57.95,65.59v3.22c38.63,1.41,69.62,28.97,69.62,71.23,0,49.29-40.04,84.91-105.03,84.91h-141.24V161.56ZM1466.69,282.69c21.33,0,36.22-10.06,36.22-28.57s-14.89-28.57-35.01-28.57h-34.61v57.14h33.4ZM1471.51,396.57c27.16,0,41.04-10.66,41.04-30.58,0-21.13-15.29-33-39.84-33h-39.44v63.58h38.23Z" style="fill:#0b1f41;"/><path d="M1605.27,161.56h216.09v65.59h-134.81v50.7h123.54v63.98h-123.54v53.92h134v65.59h-215.29V161.56Z" style="fill:#0b1f41;"/><path d="M1923.93,161.56h111.06l100.8,299.79h-92.15l-17.3-57.54h-92.15l-16.5,57.54h-90.94l97.18-299.79ZM2008.24,343.05c-10.86-36.62-20.52-75.65-29.58-114.89-8.25,39.23-16.7,78.27-27.16,114.89h56.74Z" style="fill:#0b1f41;"/><path d="M2070.32,161.56h260.36v65.59h-89.54v234.2h-81.29v-234.2h-89.54v-65.59Z" style="fill:#0b1f41;"/><path d="M2320.65,355.92h77.26c1.41,27.56,19.72,42.25,51.11,42.25,25.96,0,39.84-10.46,39.84-25.35,0-13.48-11.87-21.93-45.07-28.97l-30.18-6.44c-52.92-11.27-85.31-37.62-85.31-84.51,0-56.94,49.9-95.37,121.12-95.37s117.9,39.03,118.31,97.78h-78.07c-1.41-19.52-13.88-30.99-40.24-30.99s-36.22,9.66-36.22,22.94c0,14.29,11.87,22.53,40.24,28.57l24.55,5.23c66.2,14.08,93.76,46.28,93.76,91.75,0,59.35-45.67,92.15-121.53,92.15s-129.17-33.8-129.57-109.05Z" style="fill:#0b1f41;"/></g></svg>