<?xml version="1.0" encoding="UTF-8"?><svg id="uuid-345e26ae-eef2-4494-91e2-130b83333236" xmlns="http://www.w3.org/2000/svg" width="472.58" height="1283.68" viewBox="0 0 472.58 1283.68"><g id="uuid-d368ba27-70a9-476f-996a-6de26ca7619a"><path d="M192.68,757.83c11.73-25.34,32.88-44.04,57.88-53.1-4.62-30.73-8.76-59.08-12.54-85.78-1.09.45-2.17.9-3.25,1.38-43.57,18.98-76.79,55.9-91.13,101.18-10.08,39.39-1.65,79.76,20.53,111.14,20.53,29.4,51.81,49.64,87.21,56.2,1.15.23,2.27-.43,2.67-1.55.36-1.12-.16-2.31-1.22-2.83-24.19-5.47-45.02-20.8-57.41-42.32-10.05-17.44-13.81-37.67-10.91-57.32,1.42-9.16,4.15-18.26,8.17-26.99Z" style="fill:#fff; fill-rule:evenodd;"/><path d="M261.3,230.43c5.13,0,10.27.62,15.27,1.84,5.22,1.27,10.08,3.01,14.58,5.19,6.9-30.94,18.14-60.92,33.54-89,47.36-86.32,111.9-49.34,89.78,32-14.03,51.53-45.79,99.4-85.57,137.43.1,3.77.17,7.53.25,11.24.14,7.12.29,14.48.58,21.66.99,24.99,1.75,50.2,2.41,75.24,30.87-30.06,56.85-66.43,76-106.02,43.9-99.67,38.36-214.2-15-309.19-9.95-16.35-19.87-14.63-45.58,8.34-68.45,66.6-92.19,130.86-94.87,211.88,2.85-.39,5.73-.6,8.6-.6" style="fill:#fff; fill-rule:evenodd;"/><path d="M307.39,1130.6c1.02,11.77.06,23.38-2.61,34.44-2.8,11.5-7.45,22.41-13.68,32.3-6.26,9.85-14.11,18.72-23.27,26.17-8.93,7.25-19.15,13.15-30.39,17.3-11.24,4.15-22.84,6.33-34.38,6.66-11.83.33-23.57-1.29-34.74-4.71-22.61-6.96-42.29-21.16-56.06-40.41-1.52-2.11-3.2-4.25-1.85-6.76.82-1.58,2.5-2.54,4.28-2.41,27.39,5.34,55.8-3.56,75.25-23.89,21.59-21.95,25.05-55.93,8.34-81.77-16.68-25.84-49.08-36.65-77.95-26.01-43.57,13.71-60.78,58.37-58.37,101.18,5.11,91.13,91.26,135.33,167.33,116.84,52.6-12.76,89.81-56.23,102.34-107.87,3.33-13.58,4.53-27.9,3.39-42.45-9.25.35-18.54.87-27.64,1.38Z" style="fill:#fff; fill-rule:evenodd;"/><path d="M276.62,981.67c-.39-5.99-.78-11.97-1.17-17.89-.26-3.92-.52-7.88-.78-11.86-77.88,3.97-146.29-30.28-184.88-90.03-17.57-27.23-28.97-59.72-32.2-96.34-12.72-142.96,68.69-196.92,165.43-259.71-.12-.94-.23-1.88-.35-2.82-3.94-32.1-7.82-64.9-11.63-98.14C81.16,495.07-42.96,605.12,14.38,787.26c35.13,111.45,142.02,197.99,262.24,194.4Z" style="fill:#fff; fill-rule:evenodd;"/><path d="M370.93,622.4c-11.19-5.3-22.85-9.26-34.73-11.89.13,9.51.24,19.02.33,28.53.19,22.45.2,45.25.2,67.3,0,1.4,0,2.81,0,4.21,32.97,15.29,58.7,43.91,69.9,79.71,20.05,63.93-5.02,121.08-61.46,146.36.7,10.41,1.35,20.81,1.99,31.15,150.11-57.3,174.52-263.33,23.78-345.37Z" style="fill:#fff; fill-rule:evenodd;"/><path d="M298.64,256.8c10.89,9.47,16.28,21.15,17.34,34.76,1.54,19.86,1.29,39.81,2.07,59.7,1.88,47.59,2.93,95.2,4.06,142.81,1.15,48.35,2.3,96.71,2.72,145.07.35,40.32.08,80.64.3,120.97.28,50.75,2.81,101.37,6.58,151.97,2.89,38.86,4.98,77.77,7.44,116.67.75,11.85,1.44,23.71,2.36,35.55.27,3.5-.9,4.74-4.38,5.08-13.31,1.31-26.7,1.18-40,2.45-2.13.2-2.88-.62-2.98-2.65-.21-4.45-.63-8.89-.83-13.33-1.99-45.36-5.43-90.64-8.2-135.95-1.76-28.89-3.52-57.79-5.45-86.67-2.25-33.73-7.17-67.14-12.26-100.53-11.73-76.92-22.89-153.91-32.36-231.14-8.02-65.44-15.51-130.94-22.52-196.49-1.02-9.48-1.78-19.03,1.07-28.36,7.5-24.51,34.43-39.05,60.5-32.69,9.42,2.3,17.87,6.48,24.54,12.8Z" style="fill:#be1f41;"/><path d="M269.85,1113.83c-5.58-5.5-8.15-12.15-6.38-19.87,1.84-8.07,6.55-14.04,14.67-16.79,1.63-.55,3.36-.97,5.07-1.07,21.48-1.24,42.96-2.62,64.46-3.52,10.29-.43,18.92,7.1,21.42,17.57,2.25,9.42-2.7,19.67-11.62,24.23-4,2.05-8.36,2.35-12.65,2.45-18.68.44-37.32,1.76-55.97,2.7-7.01.36-13.6-.65-19-5.71Z" style="fill:#be1f41;"/></g></svg>